<mxfile host="app.diagrams.net" modified="2021-06-04T03:38:16.134Z" agent="5.0 (Windows NT 10.0; Win64; x64) AppleWebKit/537.36 (KHTML, like Gecko) Chrome/90.0.4430.212 Safari/537.36" etag="zE3bwmPkH4enSM8NppoJ" version="14.7.4" type="github">
  <diagram name="Page-1" id="90a13364-a465-7bf4-72fc-28e22215d7a0">
    <mxGraphModel dx="1422" dy="762" grid="1" gridSize="11" guides="1" tooltips="1" connect="1" arrows="1" fold="1" page="1" pageScale="1.5" pageWidth="1169" pageHeight="826" background="none" math="0" shadow="0">
      <root>
        <mxCell id="0" style=";html=1;" />
        <mxCell id="1" style=";html=1;" parent="0" />
        <mxCell id="-iZUTilEa2WBl7ZFIHIT-264" value="" style="rounded=1;whiteSpace=wrap;html=1;comic=0;pointerEvents=1;strokeColor=#787878;strokeWidth=1;" vertex="1" parent="1">
          <mxGeometry x="1199" y="655.5" width="1067" height="554.5" as="geometry" />
        </mxCell>
        <mxCell id="-iZUTilEa2WBl7ZFIHIT-81" value="" style="rounded=1;whiteSpace=wrap;html=1;strokeWidth=1;" vertex="1" parent="1">
          <mxGeometry x="561" y="400" width="506" height="308" as="geometry" />
        </mxCell>
        <mxCell id="-iZUTilEa2WBl7ZFIHIT-80" value="" style="rounded=1;whiteSpace=wrap;html=1;strokeWidth=1;" vertex="1" parent="1">
          <mxGeometry x="484" y="759" width="693" height="462" as="geometry" />
        </mxCell>
        <mxCell id="-iZUTilEa2WBl7ZFIHIT-8" value="" style="rounded=0;whiteSpace=wrap;html=1;fillColor=#f5f5f5;strokeColor=#666666;fontColor=#333333;" vertex="1" parent="1">
          <mxGeometry x="935.5" y="511" width="80" height="168" as="geometry" />
        </mxCell>
        <mxCell id="-iZUTilEa2WBl7ZFIHIT-5" value="" style="edgeStyle=orthogonalEdgeStyle;rounded=0;orthogonalLoop=1;jettySize=auto;html=1;" edge="1" parent="1" source="-iZUTilEa2WBl7ZFIHIT-1" target="-iZUTilEa2WBl7ZFIHIT-4">
          <mxGeometry relative="1" as="geometry" />
        </mxCell>
        <mxCell id="-iZUTilEa2WBl7ZFIHIT-1" value="&lt;font style=&quot;font-size: 16px&quot;&gt;Bug Report&lt;/font&gt;" style="rounded=0;whiteSpace=wrap;html=1;fillColor=#ffe6cc;strokeColor=#d79b00;" vertex="1" parent="1">
          <mxGeometry x="585" y="423" width="93" height="61" as="geometry" />
        </mxCell>
        <mxCell id="-iZUTilEa2WBl7ZFIHIT-22" style="edgeStyle=orthogonalEdgeStyle;rounded=0;orthogonalLoop=1;jettySize=auto;html=1;entryX=0;entryY=0.5;entryDx=0;entryDy=0;" edge="1" parent="1" source="-iZUTilEa2WBl7ZFIHIT-3" target="-iZUTilEa2WBl7ZFIHIT-8">
          <mxGeometry relative="1" as="geometry" />
        </mxCell>
        <mxCell id="-iZUTilEa2WBl7ZFIHIT-3" value="&lt;font style=&quot;font-size: 16px&quot;&gt;Source Files&lt;/font&gt;" style="shape=cylinder3;whiteSpace=wrap;html=1;boundedLbl=1;backgroundOutline=1;size=15;fillColor=#dae8fc;strokeColor=#6c8ebf;" vertex="1" parent="1">
          <mxGeometry x="737" y="534" width="121" height="122" as="geometry" />
        </mxCell>
        <mxCell id="-iZUTilEa2WBl7ZFIHIT-6" value="" style="edgeStyle=orthogonalEdgeStyle;rounded=0;orthogonalLoop=1;jettySize=auto;html=1;exitX=0.5;exitY=1;exitDx=0;exitDy=0;" edge="1" parent="1" source="-iZUTilEa2WBl7ZFIHIT-4" target="-iZUTilEa2WBl7ZFIHIT-3">
          <mxGeometry relative="1" as="geometry">
            <mxPoint x="798" y="510" as="sourcePoint" />
          </mxGeometry>
        </mxCell>
        <mxCell id="-iZUTilEa2WBl7ZFIHIT-4" value="&lt;font style=&quot;font-size: 16px&quot;&gt;IR&lt;/font&gt;" style="rounded=1;whiteSpace=wrap;html=1;fillColor=#f8cecc;strokeColor=#b85450;" vertex="1" parent="1">
          <mxGeometry x="738" y="423" width="120" height="60" as="geometry" />
        </mxCell>
        <mxCell id="-iZUTilEa2WBl7ZFIHIT-9" value="&lt;font style=&quot;font-size: 16px&quot;&gt;s&lt;/font&gt;&lt;sub&gt;&lt;font style=&quot;font-size: 12px&quot;&gt;1&lt;/font&gt;&lt;/sub&gt;" style="ellipse;whiteSpace=wrap;html=1;aspect=fixed;" vertex="1" parent="1">
          <mxGeometry x="960.5" y="524" width="30" height="30" as="geometry" />
        </mxCell>
        <mxCell id="-iZUTilEa2WBl7ZFIHIT-25" value="Stage1" style="text;strokeColor=none;fillColor=none;html=1;fontSize=24;fontStyle=1;verticalAlign=middle;align=center;" vertex="1" parent="1">
          <mxGeometry x="600" y="650" width="100" height="40" as="geometry" />
        </mxCell>
        <UserObject label="&lt;font style=&quot;font-size: 18px&quot;&gt;Top k candidates cases&lt;/font&gt;" placeholders="1" name="Variable" id="-iZUTilEa2WBl7ZFIHIT-27">
          <mxCell style="text;html=1;strokeColor=none;fillColor=none;align=center;verticalAlign=middle;whiteSpace=wrap;overflow=hidden;" vertex="1" parent="1">
            <mxGeometry x="913" y="473" width="140" height="30" as="geometry" />
          </mxCell>
        </UserObject>
        <mxCell id="-iZUTilEa2WBl7ZFIHIT-32" value="" style="edgeStyle=orthogonalEdgeStyle;rounded=0;orthogonalLoop=1;jettySize=auto;html=1;" edge="1" parent="1" source="-iZUTilEa2WBl7ZFIHIT-28" target="-iZUTilEa2WBl7ZFIHIT-30">
          <mxGeometry relative="1" as="geometry" />
        </mxCell>
        <mxCell id="-iZUTilEa2WBl7ZFIHIT-28" value="&lt;font style=&quot;font-size: 16px&quot;&gt;Report&lt;/font&gt;" style="rounded=0;whiteSpace=wrap;html=1;" vertex="1" parent="1">
          <mxGeometry x="652" y="1147" width="126" height="60" as="geometry" />
        </mxCell>
        <mxCell id="-iZUTilEa2WBl7ZFIHIT-33" value="" style="edgeStyle=orthogonalEdgeStyle;rounded=0;orthogonalLoop=1;jettySize=auto;html=1;" edge="1" parent="1" source="-iZUTilEa2WBl7ZFIHIT-29" target="-iZUTilEa2WBl7ZFIHIT-31">
          <mxGeometry relative="1" as="geometry" />
        </mxCell>
        <mxCell id="-iZUTilEa2WBl7ZFIHIT-29" value="&lt;font style=&quot;font-size: 16px&quot;&gt;Source Method&lt;/font&gt;" style="rounded=0;whiteSpace=wrap;html=1;" vertex="1" parent="1">
          <mxGeometry x="942" y="1147" width="131" height="60" as="geometry" />
        </mxCell>
        <mxCell id="-iZUTilEa2WBl7ZFIHIT-30" value="" style="shape=partialRectangle;whiteSpace=wrap;html=1;bottom=1;right=1;left=1;top=0;fillColor=none;routingCenterX=-0.5;" vertex="1" parent="1">
          <mxGeometry x="655" y="1084" width="120" height="27" as="geometry" />
        </mxCell>
        <mxCell id="-iZUTilEa2WBl7ZFIHIT-31" value="" style="shape=partialRectangle;whiteSpace=wrap;html=1;bottom=1;right=1;left=1;top=0;fillColor=none;routingCenterX=-0.5;" vertex="1" parent="1">
          <mxGeometry x="949" y="1084" width="117" height="29" as="geometry" />
        </mxCell>
        <mxCell id="-iZUTilEa2WBl7ZFIHIT-35" value="&lt;font style=&quot;font-size: 16px&quot;&gt;Tok&lt;/font&gt;&lt;sub&gt;1&lt;/sub&gt;" style="rounded=1;whiteSpace=wrap;html=1;fillColor=#e1d5e7;strokeColor=#9673a6;" vertex="1" parent="1">
          <mxGeometry x="622" y="1056.5" width="65" height="27" as="geometry" />
        </mxCell>
        <mxCell id="-iZUTilEa2WBl7ZFIHIT-37" value="&lt;font style=&quot;font-size: 16px&quot;&gt;Tok&lt;/font&gt;&lt;sub&gt;M&lt;/sub&gt;" style="rounded=1;whiteSpace=wrap;html=1;fillColor=#e1d5e7;strokeColor=#9673a6;" vertex="1" parent="1">
          <mxGeometry x="743" y="1056.5" width="65" height="27" as="geometry" />
        </mxCell>
        <mxCell id="-iZUTilEa2WBl7ZFIHIT-38" value="&lt;font style=&quot;font-size: 16px&quot;&gt;Tok&lt;/font&gt;&lt;sub&gt;1&lt;/sub&gt;" style="rounded=1;whiteSpace=wrap;html=1;fillColor=#e1d5e7;strokeColor=#9673a6;" vertex="1" parent="1">
          <mxGeometry x="930" y="1056.5" width="65" height="27" as="geometry" />
        </mxCell>
        <mxCell id="-iZUTilEa2WBl7ZFIHIT-39" value="&lt;font style=&quot;font-size: 16px&quot;&gt;Tok&lt;/font&gt;&lt;sub&gt;N&lt;/sub&gt;" style="rounded=1;whiteSpace=wrap;html=1;fillColor=#e1d5e7;strokeColor=#9673a6;" vertex="1" parent="1">
          <mxGeometry x="1040" y="1057" width="65" height="27" as="geometry" />
        </mxCell>
        <mxCell id="-iZUTilEa2WBl7ZFIHIT-41" value="&lt;font style=&quot;font-size: 16px&quot;&gt;[SEP]&lt;/font&gt;" style="rounded=1;whiteSpace=wrap;html=1;fillColor=#e1d5e7;strokeColor=#9673a6;" vertex="1" parent="1">
          <mxGeometry x="831" y="1057" width="65" height="27" as="geometry" />
        </mxCell>
        <mxCell id="-iZUTilEa2WBl7ZFIHIT-42" value="&lt;font style=&quot;font-size: 16px&quot;&gt;[CLS]&lt;/font&gt;" style="rounded=1;whiteSpace=wrap;html=1;fillColor=#e1d5e7;strokeColor=#9673a6;" vertex="1" parent="1">
          <mxGeometry x="545" y="1057" width="65" height="27" as="geometry" />
        </mxCell>
        <mxCell id="-iZUTilEa2WBl7ZFIHIT-43" value="&lt;font style=&quot;font-size: 22px&quot;&gt;CodeBert&lt;/font&gt;" style="shape=ext;double=1;rounded=0;whiteSpace=wrap;html=1;fillColor=#ffe6cc;strokeColor=#d79b00;" vertex="1" parent="1">
          <mxGeometry x="523" y="875" width="616" height="146" as="geometry" />
        </mxCell>
        <mxCell id="-iZUTilEa2WBl7ZFIHIT-44" value="&lt;font style=&quot;font-size: 16px&quot;&gt;E&lt;/font&gt;&lt;sub&gt;[CLS]&lt;/sub&gt;" style="rounded=1;whiteSpace=wrap;html=1;fillColor=#f8cecc;strokeColor=#b85450;strokeWidth=1;perimeterSpacing=4;" vertex="1" parent="1">
          <mxGeometry x="545" y="974" width="65" height="27" as="geometry" />
        </mxCell>
        <mxCell id="-iZUTilEa2WBl7ZFIHIT-45" value="&lt;font style=&quot;font-size: 16px&quot;&gt;E&lt;/font&gt;&lt;sub&gt;1&lt;/sub&gt;" style="rounded=1;whiteSpace=wrap;html=1;fillColor=#f8cecc;strokeColor=#b85450;strokeWidth=1;perimeterSpacing=4;" vertex="1" parent="1">
          <mxGeometry x="622" y="974" width="65" height="27" as="geometry" />
        </mxCell>
        <mxCell id="-iZUTilEa2WBl7ZFIHIT-47" value="&lt;font style=&quot;font-size: 16px&quot;&gt;E&lt;/font&gt;&lt;sub&gt;[SEP]&lt;/sub&gt;" style="rounded=1;whiteSpace=wrap;html=1;fillColor=#f8cecc;strokeColor=#b85450;strokeWidth=1;perimeterSpacing=4;" vertex="1" parent="1">
          <mxGeometry x="831" y="974" width="65" height="27" as="geometry" />
        </mxCell>
        <mxCell id="-iZUTilEa2WBl7ZFIHIT-50" value="&lt;font style=&quot;font-size: 16px&quot;&gt;E&lt;/font&gt;&lt;span style=&quot;font-size: 10px&quot;&gt;&lt;sub&gt;M&lt;/sub&gt;&lt;/span&gt;" style="rounded=1;whiteSpace=wrap;html=1;fillColor=#f8cecc;strokeColor=#b85450;strokeWidth=1;perimeterSpacing=4;" vertex="1" parent="1">
          <mxGeometry x="743" y="974" width="65" height="27" as="geometry" />
        </mxCell>
        <mxCell id="-iZUTilEa2WBl7ZFIHIT-51" value="&lt;font style=&quot;font-size: 16px&quot;&gt;E&lt;/font&gt;&lt;sup&gt;&#39;&lt;/sup&gt;&lt;sub&gt;1&lt;/sub&gt;" style="rounded=1;whiteSpace=wrap;html=1;fillColor=#f8cecc;strokeColor=#b85450;strokeWidth=1;perimeterSpacing=4;" vertex="1" parent="1">
          <mxGeometry x="930" y="974" width="65" height="27" as="geometry" />
        </mxCell>
        <mxCell id="-iZUTilEa2WBl7ZFIHIT-52" value="&lt;font style=&quot;font-size: 16px&quot;&gt;E&lt;/font&gt;&lt;sup&gt;&#39;&lt;/sup&gt;&lt;span style=&quot;font-size: 8.33333px&quot;&gt;&lt;sub&gt;N&lt;/sub&gt;&lt;/span&gt;" style="rounded=1;whiteSpace=wrap;html=1;fillColor=#f8cecc;strokeColor=#b85450;strokeWidth=1;perimeterSpacing=4;" vertex="1" parent="1">
          <mxGeometry x="1040" y="974" width="65" height="27" as="geometry" />
        </mxCell>
        <mxCell id="-iZUTilEa2WBl7ZFIHIT-53" value="&lt;font style=&quot;font-size: 16px&quot;&gt;C&lt;/font&gt;" style="rounded=1;whiteSpace=wrap;html=1;fillColor=#dae8fc;strokeColor=#6c8ebf;" vertex="1" parent="1">
          <mxGeometry x="545" y="891" width="65" height="27" as="geometry" />
        </mxCell>
        <mxCell id="-iZUTilEa2WBl7ZFIHIT-54" value="&lt;font style=&quot;font-size: 16px&quot;&gt;T&lt;/font&gt;&lt;sub style=&quot;font-size: 10px&quot;&gt;1&lt;/sub&gt;" style="rounded=1;whiteSpace=wrap;html=1;fillColor=#dae8fc;strokeColor=#6c8ebf;" vertex="1" parent="1">
          <mxGeometry x="622" y="891" width="65" height="27" as="geometry" />
        </mxCell>
        <mxCell id="-iZUTilEa2WBl7ZFIHIT-55" value="&lt;font style=&quot;font-size: 16px&quot;&gt;T&lt;/font&gt;&lt;sub&gt;&lt;font style=&quot;font-size: 10px&quot;&gt;[SEP]&lt;/font&gt;&lt;/sub&gt;" style="rounded=1;whiteSpace=wrap;html=1;fillColor=#dae8fc;strokeColor=#6c8ebf;" vertex="1" parent="1">
          <mxGeometry x="831" y="891" width="65" height="27" as="geometry" />
        </mxCell>
        <mxCell id="-iZUTilEa2WBl7ZFIHIT-56" value="&lt;font style=&quot;font-size: 16px&quot;&gt;T&lt;/font&gt;&lt;sub style=&quot;font-size: 10px&quot;&gt;M&lt;/sub&gt;" style="rounded=1;whiteSpace=wrap;html=1;fillColor=#dae8fc;strokeColor=#6c8ebf;" vertex="1" parent="1">
          <mxGeometry x="743" y="891" width="65" height="27" as="geometry" />
        </mxCell>
        <mxCell id="-iZUTilEa2WBl7ZFIHIT-57" value="&lt;font style=&quot;font-size: 16px&quot;&gt;T&lt;/font&gt;&lt;sup style=&quot;font-size: 10px&quot;&gt;&#39;&lt;/sup&gt;&lt;sub style=&quot;font-size: 10px&quot;&gt;1&lt;/sub&gt;" style="rounded=1;whiteSpace=wrap;html=1;fillColor=#dae8fc;strokeColor=#6c8ebf;" vertex="1" parent="1">
          <mxGeometry x="930" y="891" width="65" height="27" as="geometry" />
        </mxCell>
        <mxCell id="-iZUTilEa2WBl7ZFIHIT-58" value="&lt;font style=&quot;font-size: 16px&quot;&gt;T&lt;/font&gt;&lt;sup&gt;&#39;&lt;/sup&gt;&lt;sub&gt;N&lt;/sub&gt;" style="rounded=1;whiteSpace=wrap;html=1;fillColor=#dae8fc;strokeColor=#6c8ebf;" vertex="1" parent="1">
          <mxGeometry x="1040" y="891" width="65" height="27" as="geometry" />
        </mxCell>
        <mxCell id="-iZUTilEa2WBl7ZFIHIT-59" value="&lt;font style=&quot;font-size: 16px&quot;&gt;Entailment Label&lt;/font&gt;" style="rounded=0;whiteSpace=wrap;html=1;fillColor=#d5e8d4;strokeColor=#82b366;" vertex="1" parent="1">
          <mxGeometry x="517" y="785" width="121" height="53" as="geometry" />
        </mxCell>
        <mxCell id="-iZUTilEa2WBl7ZFIHIT-60" value="" style="shape=flexArrow;endArrow=classic;html=1;fillColor=#f8cecc;strokeColor=#b85450;" edge="1" parent="1">
          <mxGeometry width="50" height="50" relative="1" as="geometry">
            <mxPoint x="578" y="880" as="sourcePoint" />
            <mxPoint x="578" y="836" as="targetPoint" />
          </mxGeometry>
        </mxCell>
        <mxCell id="-iZUTilEa2WBl7ZFIHIT-61" value="" style="shape=flexArrow;endArrow=classic;html=1;" edge="1" parent="1">
          <mxGeometry width="50" height="50" relative="1" as="geometry">
            <mxPoint x="580" y="1051" as="sourcePoint" />
            <mxPoint x="580" y="1007" as="targetPoint" />
          </mxGeometry>
        </mxCell>
        <mxCell id="-iZUTilEa2WBl7ZFIHIT-62" value="" style="shape=flexArrow;endArrow=classic;html=1;" edge="1" parent="1">
          <mxGeometry width="50" height="50" relative="1" as="geometry">
            <mxPoint x="655" y="1051" as="sourcePoint" />
            <mxPoint x="655" y="1007" as="targetPoint" />
          </mxGeometry>
        </mxCell>
        <mxCell id="-iZUTilEa2WBl7ZFIHIT-63" value="" style="shape=flexArrow;endArrow=classic;html=1;" edge="1" parent="1">
          <mxGeometry width="50" height="50" relative="1" as="geometry">
            <mxPoint x="775" y="1051" as="sourcePoint" />
            <mxPoint x="775" y="1007" as="targetPoint" />
          </mxGeometry>
        </mxCell>
        <mxCell id="-iZUTilEa2WBl7ZFIHIT-65" value="" style="shape=flexArrow;endArrow=classic;html=1;" edge="1" parent="1">
          <mxGeometry width="50" height="50" relative="1" as="geometry">
            <mxPoint x="870" y="1051" as="sourcePoint" />
            <mxPoint x="870" y="1007" as="targetPoint" />
          </mxGeometry>
        </mxCell>
        <mxCell id="-iZUTilEa2WBl7ZFIHIT-66" value="" style="shape=flexArrow;endArrow=classic;html=1;" edge="1" parent="1">
          <mxGeometry width="50" height="50" relative="1" as="geometry">
            <mxPoint x="963" y="1051" as="sourcePoint" />
            <mxPoint x="963" y="1007" as="targetPoint" />
          </mxGeometry>
        </mxCell>
        <mxCell id="-iZUTilEa2WBl7ZFIHIT-67" value="" style="shape=flexArrow;endArrow=classic;html=1;" edge="1" parent="1">
          <mxGeometry width="50" height="50" relative="1" as="geometry">
            <mxPoint x="1072" y="1051" as="sourcePoint" />
            <mxPoint x="1072" y="1007" as="targetPoint" />
          </mxGeometry>
        </mxCell>
        <mxCell id="-iZUTilEa2WBl7ZFIHIT-69" value="Stage2" style="text;strokeColor=none;fillColor=none;html=1;fontSize=24;fontStyle=1;verticalAlign=middle;align=center;" vertex="1" parent="1">
          <mxGeometry x="995" y="775" width="100" height="40" as="geometry" />
        </mxCell>
        <mxCell id="-iZUTilEa2WBl7ZFIHIT-71" value="" style="shape=waypoint;sketch=0;size=6;pointerEvents=1;points=[];fillColor=none;resizable=0;rotatable=0;perimeter=centerPerimeter;snapToPoint=1;strokeWidth=1;strokeColor=#787878;" vertex="1" parent="1">
          <mxGeometry x="955.5" y="592" width="40" height="40" as="geometry" />
        </mxCell>
        <mxCell id="-iZUTilEa2WBl7ZFIHIT-82" value="&lt;span style=&quot;font-size: 16px&quot;&gt;s&lt;/span&gt;&lt;font style=&quot;font-size: 12px&quot;&gt;&lt;sub&gt;2&lt;/sub&gt;&lt;/font&gt;" style="ellipse;whiteSpace=wrap;html=1;aspect=fixed;" vertex="1" parent="1">
          <mxGeometry x="960.5" y="566" width="30" height="30" as="geometry" />
        </mxCell>
        <mxCell id="-iZUTilEa2WBl7ZFIHIT-83" value="&lt;font style=&quot;font-size: 16px&quot;&gt;s&lt;/font&gt;&lt;font style=&quot;font-size: 12px&quot;&gt;&lt;sub&gt;k&lt;/sub&gt;&lt;/font&gt;" style="ellipse;whiteSpace=wrap;html=1;aspect=fixed;" vertex="1" parent="1">
          <mxGeometry x="960.5" y="646" width="30" height="30" as="geometry" />
        </mxCell>
        <mxCell id="-iZUTilEa2WBl7ZFIHIT-84" value="" style="shape=waypoint;sketch=0;size=6;pointerEvents=1;points=[];fillColor=none;resizable=0;rotatable=0;perimeter=centerPerimeter;snapToPoint=1;strokeWidth=1;strokeColor=#787878;" vertex="1" parent="1">
          <mxGeometry x="955.5" y="608" width="40" height="40" as="geometry" />
        </mxCell>
        <mxCell id="-iZUTilEa2WBl7ZFIHIT-85" value="" style="shape=waypoint;sketch=0;size=6;pointerEvents=1;points=[];fillColor=none;resizable=0;rotatable=0;perimeter=centerPerimeter;snapToPoint=1;strokeWidth=1;strokeColor=#787878;" vertex="1" parent="1">
          <mxGeometry x="989" y="884.5" width="40" height="40" as="geometry" />
        </mxCell>
        <mxCell id="-iZUTilEa2WBl7ZFIHIT-86" value="" style="shape=waypoint;sketch=0;size=6;pointerEvents=1;points=[];fillColor=none;resizable=0;rotatable=0;perimeter=centerPerimeter;snapToPoint=1;strokeWidth=1;strokeColor=#787878;" vertex="1" parent="1">
          <mxGeometry x="1000" y="884.5" width="40" height="40" as="geometry" />
        </mxCell>
        <mxCell id="-iZUTilEa2WBl7ZFIHIT-87" value="" style="shape=waypoint;sketch=0;size=6;pointerEvents=1;points=[];fillColor=none;resizable=0;rotatable=0;perimeter=centerPerimeter;snapToPoint=1;strokeWidth=1;strokeColor=#787878;" vertex="1" parent="1">
          <mxGeometry x="990.5" y="967.5" width="40" height="40" as="geometry" />
        </mxCell>
        <mxCell id="-iZUTilEa2WBl7ZFIHIT-88" value="" style="shape=waypoint;sketch=0;size=6;pointerEvents=1;points=[];fillColor=none;resizable=0;rotatable=0;perimeter=centerPerimeter;snapToPoint=1;strokeWidth=1;strokeColor=#787878;" vertex="1" parent="1">
          <mxGeometry x="1001.5" y="967.5" width="40" height="40" as="geometry" />
        </mxCell>
        <mxCell id="-iZUTilEa2WBl7ZFIHIT-89" value="" style="shape=waypoint;sketch=0;size=6;pointerEvents=1;points=[];fillColor=none;resizable=0;rotatable=0;perimeter=centerPerimeter;snapToPoint=1;strokeWidth=1;strokeColor=#787878;" vertex="1" parent="1">
          <mxGeometry x="689.5" y="967.5" width="40" height="40" as="geometry" />
        </mxCell>
        <mxCell id="-iZUTilEa2WBl7ZFIHIT-90" value="" style="shape=waypoint;sketch=0;size=6;pointerEvents=1;points=[];fillColor=none;resizable=0;rotatable=0;perimeter=centerPerimeter;snapToPoint=1;strokeWidth=1;strokeColor=#787878;" vertex="1" parent="1">
          <mxGeometry x="700.5" y="967.5" width="40" height="40" as="geometry" />
        </mxCell>
        <mxCell id="-iZUTilEa2WBl7ZFIHIT-91" value="" style="shape=waypoint;sketch=0;size=6;pointerEvents=1;points=[];fillColor=none;resizable=0;rotatable=0;perimeter=centerPerimeter;snapToPoint=1;strokeWidth=1;strokeColor=#787878;" vertex="1" parent="1">
          <mxGeometry x="689.5" y="884.5" width="40" height="40" as="geometry" />
        </mxCell>
        <mxCell id="-iZUTilEa2WBl7ZFIHIT-92" value="" style="shape=waypoint;sketch=0;size=6;pointerEvents=1;points=[];fillColor=none;resizable=0;rotatable=0;perimeter=centerPerimeter;snapToPoint=1;strokeWidth=1;strokeColor=#787878;" vertex="1" parent="1">
          <mxGeometry x="700.5" y="884.5" width="40" height="40" as="geometry" />
        </mxCell>
        <UserObject label="&lt;font style=&quot;font-size: 16px&quot;&gt;Report=(summary,description)&lt;/font&gt;" placeholders="1" name="Variable" id="-iZUTilEa2WBl7ZFIHIT-94">
          <mxCell style="text;html=1;strokeColor=#6c8ebf;fillColor=#dae8fc;align=center;verticalAlign=middle;whiteSpace=wrap;overflow=hidden;" vertex="1" parent="1">
            <mxGeometry x="1265" y="1012" width="253" height="57.5" as="geometry" />
          </mxCell>
        </UserObject>
        <UserObject label="&lt;font style=&quot;font-size: 16px&quot;&gt;Source File=(method&lt;sub&gt;1&lt;/sub&gt;,...,method&lt;sub&gt;k&lt;/sub&gt;)&lt;/font&gt;" placeholders="1" name="Variable" id="-iZUTilEa2WBl7ZFIHIT-95">
          <mxCell style="text;html=1;strokeColor=#6c8ebf;fillColor=#dae8fc;align=center;verticalAlign=middle;whiteSpace=wrap;overflow=hidden;" vertex="1" parent="1">
            <mxGeometry x="1540" y="1012" width="275" height="58" as="geometry" />
          </mxCell>
        </UserObject>
        <mxCell id="-iZUTilEa2WBl7ZFIHIT-110" value="" style="shape=table;html=1;whiteSpace=wrap;startSize=0;container=1;collapsible=0;childLayout=tableLayout;strokeColor=#787878;strokeWidth=1;" vertex="1" parent="1">
          <mxGeometry x="1309" y="747" width="429" height="128" as="geometry" />
        </mxCell>
        <mxCell id="-iZUTilEa2WBl7ZFIHIT-111" value="" style="shape=partialRectangle;html=1;whiteSpace=wrap;collapsible=0;dropTarget=0;pointerEvents=0;fillColor=none;top=0;left=0;bottom=0;right=0;points=[[0,0.5],[1,0.5]];portConstraint=eastwest;" vertex="1" parent="-iZUTilEa2WBl7ZFIHIT-110">
          <mxGeometry width="429" height="65" as="geometry" />
        </mxCell>
        <mxCell id="-iZUTilEa2WBl7ZFIHIT-112" value="" style="shape=partialRectangle;html=1;whiteSpace=wrap;connectable=0;fillColor=#d5e8d4;top=0;left=0;bottom=0;right=0;overflow=hidden;strokeColor=#82b366;" vertex="1" parent="-iZUTilEa2WBl7ZFIHIT-111">
          <mxGeometry width="143" height="65" as="geometry" />
        </mxCell>
        <mxCell id="-iZUTilEa2WBl7ZFIHIT-113" value="" style="shape=partialRectangle;html=1;whiteSpace=wrap;connectable=0;fillColor=#d5e8d4;top=0;left=0;bottom=0;right=0;overflow=hidden;strokeColor=#82b366;" vertex="1" parent="-iZUTilEa2WBl7ZFIHIT-111">
          <mxGeometry x="143" width="143" height="65" as="geometry" />
        </mxCell>
        <mxCell id="-iZUTilEa2WBl7ZFIHIT-114" value="" style="shape=partialRectangle;html=1;whiteSpace=wrap;connectable=0;fillColor=#d5e8d4;top=0;left=0;bottom=0;right=0;overflow=hidden;strokeColor=#82b366;" vertex="1" parent="-iZUTilEa2WBl7ZFIHIT-111">
          <mxGeometry x="286" width="143" height="65" as="geometry" />
        </mxCell>
        <mxCell id="-iZUTilEa2WBl7ZFIHIT-115" value="" style="shape=partialRectangle;html=1;whiteSpace=wrap;collapsible=0;dropTarget=0;pointerEvents=0;fillColor=none;top=0;left=0;bottom=0;right=0;points=[[0,0.5],[1,0.5]];portConstraint=eastwest;" vertex="1" parent="-iZUTilEa2WBl7ZFIHIT-110">
          <mxGeometry y="65" width="429" height="63" as="geometry" />
        </mxCell>
        <mxCell id="-iZUTilEa2WBl7ZFIHIT-116" value="" style="shape=partialRectangle;html=1;whiteSpace=wrap;connectable=0;fillColor=none;top=0;left=0;bottom=0;right=0;overflow=hidden;" vertex="1" parent="-iZUTilEa2WBl7ZFIHIT-115">
          <mxGeometry width="143" height="63" as="geometry" />
        </mxCell>
        <mxCell id="-iZUTilEa2WBl7ZFIHIT-117" value="&lt;font color=&quot;#ff66b3&quot;&gt;&lt;font style=&quot;font-size: 16px&quot;&gt;C&lt;/font&gt;&lt;sub&gt;ij&lt;/sub&gt;&lt;/font&gt;" style="shape=partialRectangle;html=1;whiteSpace=wrap;connectable=0;fillColor=none;top=0;left=0;bottom=0;right=0;overflow=hidden;" vertex="1" parent="-iZUTilEa2WBl7ZFIHIT-115">
          <mxGeometry x="143" width="143" height="63" as="geometry" />
        </mxCell>
        <mxCell id="-iZUTilEa2WBl7ZFIHIT-118" value="" style="shape=partialRectangle;html=1;whiteSpace=wrap;connectable=0;fillColor=none;top=0;left=0;bottom=0;right=0;overflow=hidden;" vertex="1" parent="-iZUTilEa2WBl7ZFIHIT-115">
          <mxGeometry x="286" width="143" height="63" as="geometry" />
        </mxCell>
        <UserObject label="&lt;font style=&quot;font-size: 16px&quot;&gt;summary&lt;/font&gt;" placeholders="1" name="Variable" id="-iZUTilEa2WBl7ZFIHIT-126">
          <mxCell style="text;html=1;strokeColor=none;fillColor=none;align=center;verticalAlign=middle;whiteSpace=wrap;overflow=hidden;" vertex="1" parent="1">
            <mxGeometry x="1210" y="758.75" width="80" height="23.5" as="geometry" />
          </mxCell>
        </UserObject>
        <UserObject label="&lt;font style=&quot;font-size: 16px&quot;&gt;description&lt;/font&gt;" placeholders="1" name="Variable" id="-iZUTilEa2WBl7ZFIHIT-127">
          <mxCell style="text;html=1;strokeColor=none;fillColor=none;align=center;verticalAlign=middle;whiteSpace=wrap;overflow=hidden;" vertex="1" parent="1">
            <mxGeometry x="1210" y="818.75" width="80" height="34" as="geometry" />
          </mxCell>
        </UserObject>
        <UserObject label="&lt;font style=&quot;font-size: 16px&quot;&gt;method&lt;sub&gt;1&lt;/sub&gt;&lt;/font&gt;" placeholders="1" name="Variable" id="-iZUTilEa2WBl7ZFIHIT-128">
          <mxCell style="text;html=1;strokeColor=none;fillColor=none;align=center;verticalAlign=middle;whiteSpace=wrap;overflow=hidden;" vertex="1" parent="1">
            <mxGeometry x="1309" y="679.25" width="80" height="23.5" as="geometry" />
          </mxCell>
        </UserObject>
        <UserObject label="&lt;font style=&quot;font-size: 16px&quot;&gt;method&lt;/font&gt;&lt;font style=&quot;font-size: 13.3333px&quot;&gt;&lt;sub&gt;k&lt;/sub&gt;&lt;/font&gt;" placeholders="1" name="Variable" id="-iZUTilEa2WBl7ZFIHIT-129">
          <mxCell style="text;html=1;strokeColor=none;fillColor=none;align=center;verticalAlign=middle;whiteSpace=wrap;overflow=hidden;" vertex="1" parent="1">
            <mxGeometry x="1612.5" y="679.25" width="80" height="23.5" as="geometry" />
          </mxCell>
        </UserObject>
        <mxCell id="-iZUTilEa2WBl7ZFIHIT-130" value="" style="shape=waypoint;sketch=0;size=6;pointerEvents=1;points=[];fillColor=none;resizable=0;rotatable=0;perimeter=centerPerimeter;snapToPoint=1;strokeWidth=1;strokeColor=#787878;" vertex="1" parent="1">
          <mxGeometry x="1474" y="671" width="40" height="40" as="geometry" />
        </mxCell>
        <mxCell id="-iZUTilEa2WBl7ZFIHIT-131" value="" style="shape=waypoint;sketch=0;size=6;pointerEvents=1;points=[];fillColor=none;resizable=0;rotatable=0;perimeter=centerPerimeter;snapToPoint=1;strokeWidth=1;strokeColor=#787878;" vertex="1" parent="1">
          <mxGeometry x="1510.5" y="671" width="40" height="40" as="geometry" />
        </mxCell>
        <mxCell id="-iZUTilEa2WBl7ZFIHIT-132" value="" style="shape=waypoint;sketch=0;size=6;pointerEvents=1;points=[];fillColor=none;resizable=0;rotatable=0;perimeter=centerPerimeter;snapToPoint=1;strokeWidth=1;strokeColor=#787878;" vertex="1" parent="1">
          <mxGeometry x="1441" y="671" width="40" height="40" as="geometry" />
        </mxCell>
        <mxCell id="-iZUTilEa2WBl7ZFIHIT-133" value="&lt;font style=&quot;font-size: 16px&quot;&gt;&lt;b&gt;CodeBert&lt;/b&gt;&lt;/font&gt;" style="rounded=1;whiteSpace=wrap;html=1;strokeColor=#b85450;strokeWidth=1;fillColor=#f8cecc;" vertex="1" parent="1">
          <mxGeometry x="1446.5" y="891" width="148.5" height="88" as="geometry" />
        </mxCell>
        <mxCell id="-iZUTilEa2WBl7ZFIHIT-135" value="" style="endArrow=classic;html=1;" edge="1" parent="1">
          <mxGeometry width="50" height="50" relative="1" as="geometry">
            <mxPoint x="1573" y="1012" as="sourcePoint" />
            <mxPoint x="1529" y="968" as="targetPoint" />
          </mxGeometry>
        </mxCell>
        <mxCell id="-iZUTilEa2WBl7ZFIHIT-136" value="&lt;font style=&quot;font-size: 16px&quot;&gt;Max Pooling&lt;/font&gt;" style="rounded=1;whiteSpace=wrap;html=1;strokeColor=#82b366;strokeWidth=1;fillColor=#d5e8d4;" vertex="1" parent="1">
          <mxGeometry x="1760" y="687" width="120" height="60" as="geometry" />
        </mxCell>
        <mxCell id="-iZUTilEa2WBl7ZFIHIT-137" value="" style="shape=flexArrow;endArrow=classic;html=1;fillColor=#d5e8d4;strokeColor=#82b366;" edge="1" parent="1">
          <mxGeometry width="50" height="50" relative="1" as="geometry">
            <mxPoint x="1754" y="781.25" as="sourcePoint" />
            <mxPoint x="1925" y="781.75" as="targetPoint" />
          </mxGeometry>
        </mxCell>
        <mxCell id="-iZUTilEa2WBl7ZFIHIT-138" value="" style="endArrow=classic;html=1;exitX=0.5;exitY=0;exitDx=0;exitDy=0;" edge="1" parent="1" source="-iZUTilEa2WBl7ZFIHIT-133">
          <mxGeometry width="50" height="50" relative="1" as="geometry">
            <mxPoint x="1386" y="908" as="sourcePoint" />
            <mxPoint x="1520" y="858" as="targetPoint" />
          </mxGeometry>
        </mxCell>
        <mxCell id="-iZUTilEa2WBl7ZFIHIT-167" value="" style="shape=table;html=1;whiteSpace=wrap;startSize=0;container=1;collapsible=0;childLayout=tableLayout;strokeColor=#d6b656;strokeWidth=1;resizeWidth=0;resizeHeight=1;treeFolding=0;treeMoving=0;resizable=0;rotatable=0;fillColor=#fff2cc;" vertex="1" parent="1">
          <mxGeometry x="1925" y="744.75" width="60" height="133.5" as="geometry" />
        </mxCell>
        <mxCell id="-iZUTilEa2WBl7ZFIHIT-204" style="shape=partialRectangle;html=1;whiteSpace=wrap;collapsible=0;dropTarget=0;pointerEvents=0;fillColor=none;top=0;left=0;bottom=0;right=0;points=[[0,0.5],[1,0.5]];portConstraint=eastwest;" vertex="1" parent="-iZUTilEa2WBl7ZFIHIT-167">
          <mxGeometry width="60" height="67" as="geometry" />
        </mxCell>
        <mxCell id="-iZUTilEa2WBl7ZFIHIT-205" value="&lt;font style=&quot;font-size: 16px&quot;&gt;F&lt;/font&gt;&lt;sub&gt;sum&lt;/sub&gt;" style="shape=partialRectangle;html=1;whiteSpace=wrap;connectable=0;fillColor=none;top=0;left=0;bottom=0;right=0;overflow=hidden;flipV=0;" vertex="1" parent="-iZUTilEa2WBl7ZFIHIT-204">
          <mxGeometry width="60" height="67" as="geometry" />
        </mxCell>
        <mxCell id="-iZUTilEa2WBl7ZFIHIT-231" style="shape=partialRectangle;html=1;whiteSpace=wrap;collapsible=0;dropTarget=0;pointerEvents=0;fillColor=none;top=0;left=0;bottom=0;right=0;points=[[0,0.5],[1,0.5]];portConstraint=eastwest;" vertex="1" parent="-iZUTilEa2WBl7ZFIHIT-167">
          <mxGeometry y="67" width="60" height="67" as="geometry" />
        </mxCell>
        <mxCell id="-iZUTilEa2WBl7ZFIHIT-232" value="&lt;font style=&quot;font-size: 16px&quot;&gt;F&lt;/font&gt;&lt;font style=&quot;font-size: 12px&quot;&gt;&lt;sub&gt;desc&lt;/sub&gt;&lt;/font&gt;" style="shape=partialRectangle;html=1;whiteSpace=wrap;connectable=0;fillColor=none;top=0;left=0;bottom=0;right=0;overflow=hidden;flipV=0;" vertex="1" parent="-iZUTilEa2WBl7ZFIHIT-231">
          <mxGeometry width="60" height="67" as="geometry" />
        </mxCell>
        <mxCell id="-iZUTilEa2WBl7ZFIHIT-234" value="" style="shape=table;html=1;whiteSpace=wrap;startSize=0;container=1;collapsible=0;childLayout=tableLayout;strokeColor=#d6b656;strokeWidth=1;resizeWidth=0;resizeHeight=1;treeFolding=0;treeMoving=0;resizable=0;rotatable=0;fillColor=#fff2cc;" vertex="1" parent="1">
          <mxGeometry x="1925" y="902" width="60" height="267.5" as="geometry" />
        </mxCell>
        <mxCell id="-iZUTilEa2WBl7ZFIHIT-249" style="shape=partialRectangle;html=1;whiteSpace=wrap;collapsible=0;dropTarget=0;pointerEvents=0;fillColor=none;top=0;left=0;bottom=0;right=0;points=[[0,0.5],[1,0.5]];portConstraint=eastwest;" vertex="1" parent="-iZUTilEa2WBl7ZFIHIT-234">
          <mxGeometry width="60" height="67" as="geometry" />
        </mxCell>
        <mxCell id="-iZUTilEa2WBl7ZFIHIT-250" value="&lt;font style=&quot;font-size: 16px&quot;&gt;F&lt;/font&gt;&lt;font style=&quot;font-size: 10px&quot;&gt;&lt;sub&gt;1&lt;/sub&gt;&lt;/font&gt;" style="shape=partialRectangle;html=1;whiteSpace=wrap;connectable=0;fillColor=none;top=0;left=0;bottom=0;right=0;overflow=hidden;flipV=0;" vertex="1" parent="-iZUTilEa2WBl7ZFIHIT-249">
          <mxGeometry width="60" height="67" as="geometry" />
        </mxCell>
        <mxCell id="-iZUTilEa2WBl7ZFIHIT-247" style="shape=partialRectangle;html=1;whiteSpace=wrap;collapsible=0;dropTarget=0;pointerEvents=0;fillColor=none;top=0;left=0;bottom=0;right=0;points=[[0,0.5],[1,0.5]];portConstraint=eastwest;" vertex="1" parent="-iZUTilEa2WBl7ZFIHIT-234">
          <mxGeometry y="67" width="60" height="67" as="geometry" />
        </mxCell>
        <mxCell id="-iZUTilEa2WBl7ZFIHIT-248" value="&lt;font style=&quot;font-size: 16px&quot;&gt;F&lt;/font&gt;&lt;font&gt;&lt;sub&gt;2&lt;/sub&gt;&lt;/font&gt;" style="shape=partialRectangle;html=1;whiteSpace=wrap;connectable=0;fillColor=none;top=0;left=0;bottom=0;right=0;overflow=hidden;flipV=0;" vertex="1" parent="-iZUTilEa2WBl7ZFIHIT-247">
          <mxGeometry width="60" height="67" as="geometry" />
        </mxCell>
        <mxCell id="-iZUTilEa2WBl7ZFIHIT-235" style="shape=partialRectangle;html=1;whiteSpace=wrap;collapsible=0;dropTarget=0;pointerEvents=0;fillColor=none;top=0;left=0;bottom=0;right=0;points=[[0,0.5],[1,0.5]];portConstraint=eastwest;" vertex="1" parent="-iZUTilEa2WBl7ZFIHIT-234">
          <mxGeometry y="134" width="60" height="67" as="geometry" />
        </mxCell>
        <mxCell id="-iZUTilEa2WBl7ZFIHIT-236" value="" style="shape=partialRectangle;html=1;whiteSpace=wrap;connectable=0;fillColor=none;top=0;left=0;bottom=0;right=0;overflow=hidden;flipV=0;" vertex="1" parent="-iZUTilEa2WBl7ZFIHIT-235">
          <mxGeometry width="60" height="67" as="geometry" />
        </mxCell>
        <mxCell id="-iZUTilEa2WBl7ZFIHIT-237" style="shape=partialRectangle;html=1;whiteSpace=wrap;collapsible=0;dropTarget=0;pointerEvents=0;fillColor=none;top=0;left=0;bottom=0;right=0;points=[[0,0.5],[1,0.5]];portConstraint=eastwest;" vertex="1" parent="-iZUTilEa2WBl7ZFIHIT-234">
          <mxGeometry y="201" width="60" height="67" as="geometry" />
        </mxCell>
        <mxCell id="-iZUTilEa2WBl7ZFIHIT-238" value="&lt;font style=&quot;font-size: 16px&quot;&gt;F&lt;/font&gt;&lt;font style=&quot;font-size: 10px&quot;&gt;19&lt;/font&gt;" style="shape=partialRectangle;html=1;whiteSpace=wrap;connectable=0;fillColor=none;top=0;left=0;bottom=0;right=0;overflow=hidden;flipV=0;" vertex="1" parent="-iZUTilEa2WBl7ZFIHIT-237">
          <mxGeometry width="60" height="67" as="geometry" />
        </mxCell>
        <mxCell id="-iZUTilEa2WBl7ZFIHIT-251" value="" style="shape=waypoint;sketch=0;size=6;pointerEvents=1;points=[];fillColor=none;resizable=0;rotatable=0;perimeter=centerPerimeter;snapToPoint=1;strokeWidth=1;strokeColor=#787878;" vertex="1" parent="1">
          <mxGeometry x="1935" y="1030" width="40" height="40" as="geometry" />
        </mxCell>
        <mxCell id="-iZUTilEa2WBl7ZFIHIT-252" value="" style="shape=waypoint;sketch=0;size=6;pointerEvents=1;points=[];fillColor=none;resizable=0;rotatable=0;perimeter=centerPerimeter;snapToPoint=1;strokeWidth=1;strokeColor=#787878;" vertex="1" parent="1">
          <mxGeometry x="1936" y="1057" width="40" height="40" as="geometry" />
        </mxCell>
        <mxCell id="-iZUTilEa2WBl7ZFIHIT-253" value="&lt;span style=&quot;font-size: 16px&quot;&gt;IR Features&lt;/span&gt;" style="rounded=1;whiteSpace=wrap;html=1;strokeColor=#d79b00;strokeWidth=1;fillColor=#ffe6cc;" vertex="1" parent="1">
          <mxGeometry x="1793" y="1111" width="120" height="60" as="geometry" />
        </mxCell>
        <mxCell id="-iZUTilEa2WBl7ZFIHIT-254" value="" style="shape=flexArrow;endArrow=classic;html=1;endWidth=42;endSize=7;width=25;fillColor=#fff2cc;strokeColor=#d6b656;" edge="1" parent="1">
          <mxGeometry width="50" height="50" relative="1" as="geometry">
            <mxPoint x="2002" y="954" as="sourcePoint" />
            <mxPoint x="2068" y="954" as="targetPoint" />
            <Array as="points">
              <mxPoint x="2079" y="954" />
            </Array>
          </mxGeometry>
        </mxCell>
        <mxCell id="-iZUTilEa2WBl7ZFIHIT-255" value="" style="shape=flexArrow;endArrow=classic;html=1;fillColor=#d5e8d4;strokeColor=#82b366;" edge="1" parent="1">
          <mxGeometry width="50" height="50" relative="1" as="geometry">
            <mxPoint x="1754" y="851.75" as="sourcePoint" />
            <mxPoint x="1925" y="852.25" as="targetPoint" />
          </mxGeometry>
        </mxCell>
        <mxCell id="-iZUTilEa2WBl7ZFIHIT-256" value="&lt;p&gt;&lt;font style=&quot;font-size: 16px&quot;&gt;MLP&lt;/font&gt;&lt;/p&gt;" style="rounded=0;whiteSpace=wrap;html=1;comic=0;pointerEvents=1;strokeColor=#6c8ebf;strokeWidth=1;fillColor=#dae8fc;" vertex="1" parent="1">
          <mxGeometry x="2079" y="803" width="44" height="319" as="geometry" />
        </mxCell>
        <mxCell id="-iZUTilEa2WBl7ZFIHIT-258" value="" style="shape=flexArrow;endArrow=classic;html=1;fillColor=#dae8fc;strokeColor=#6c8ebf;" edge="1" parent="1">
          <mxGeometry width="50" height="50" relative="1" as="geometry">
            <mxPoint x="2134" y="954.01" as="sourcePoint" />
            <mxPoint x="2178" y="954" as="targetPoint" />
          </mxGeometry>
        </mxCell>
        <mxCell id="-iZUTilEa2WBl7ZFIHIT-259" value="&lt;font style=&quot;font-size: 17px&quot;&gt;y&lt;/font&gt;" style="ellipse;whiteSpace=wrap;html=1;comic=0;pointerEvents=1;strokeColor=#82b366;strokeWidth=1;fillColor=#d5e8d4;" vertex="1" parent="1">
          <mxGeometry x="2189" y="932.62" width="65" height="43.75" as="geometry" />
        </mxCell>
        <mxCell id="-iZUTilEa2WBl7ZFIHIT-134" value="" style="endArrow=classic;html=1;" edge="1" parent="1" source="-iZUTilEa2WBl7ZFIHIT-94">
          <mxGeometry width="50" height="50" relative="1" as="geometry">
            <mxPoint x="1419" y="1012" as="sourcePoint" />
            <mxPoint x="1507" y="968" as="targetPoint" />
          </mxGeometry>
        </mxCell>
        <mxCell id="-iZUTilEa2WBl7ZFIHIT-265" value="Stage3" style="text;strokeColor=none;fillColor=none;html=1;fontSize=24;fontStyle=1;verticalAlign=middle;align=center;" vertex="1" parent="1">
          <mxGeometry x="1254" y="1147" width="100" height="40" as="geometry" />
        </mxCell>
      </root>
    </mxGraphModel>
  </diagram>
</mxfile>
